<?xml version="1.0"?>
<svg xmlns="http://www.w3.org/2000/svg" viewBox="0 0 512 512" width="512" height="512"><g id="Solid"><path d="M255.844,64H216V76a35.8,35.8,0,0,1-2.355,12.788l36.833,2.041Z"/><path d="M180,96a20.023,20.023,0,0,0,20-20V52a20,20,0,0,0-40,0V76A20.023,20.023,0,0,0,180,96Z"/><path d="M65.986,81.445A8,8,0,0,1,72.065,94.3l-34.9,45.656,8.516,2.839L99.764,85.327a7.948,7.948,0,0,1,6.268-2.5l39.1,2.166A35.914,35.914,0,0,1,144,76V64H62.624a23.969,23.969,0,0,1-.505,17.312Z"/><path d="M40,80a8,8,0,0,0,.138-15.993,8.278,8.278,0,0,0-8.131,8.131A8.006,8.006,0,0,0,40,80Z"/><path d="M221.887,233.776,203.378,104.242l-1.022-.056A35.9,35.9,0,0,1,160,105.917V296h49.441Z"/><path d="M348,96a20.023,20.023,0,0,0,20-20V52a20,20,0,0,0-40,0V76A20.023,20.023,0,0,0,348,96Z"/><polygon points="393.062 296 401.887 234.228 377.821 113.906 328 111.146 328 245.437 364.117 296 393.062 296"/><path d="M426.207,64H384V76a35.81,35.81,0,0,1-7.389,21.815l44.413,2.462Z"/><path d="M144,352a40.249,40.249,0,0,0-24-8,8,8,0,0,1,0-16,56.358,56.358,0,0,1,33.6,11.2l2.507,1.881A48.066,48.066,0,0,0,112,312H80a48.069,48.069,0,0,0-44.107,29.079L38.4,339.2A56.358,56.358,0,0,1,72,328a8,8,0,0,1,0,16,40.249,40.249,0,0,0-24,8L32.17,363.873A48.054,48.054,0,0,0,80,408h32a48.054,48.054,0,0,0,47.83-44.127Zm-1.689,21.268A33.705,33.705,0,0,1,112,392H80a33.705,33.705,0,0,1-30.311-18.732l-.844-1.69,14.31-7.156L64,366.111a17.814,17.814,0,0,0,8,8.009V368a24,24,0,0,1,48,0v6.12a17.814,17.814,0,0,0,8-8.009l.845-1.689,14.31,7.156Z"/><path d="M462.579,32c-.093,0-.185,0-.277,0a18.071,18.071,0,0,0-17.612,15.76L407.919,305.132A8,8,0,0,1,400,312H283.845l-29.6,37L241.753,339l31.859-39.824L312,245.437V216.15l-17.582,23.626-12.836-9.552L312,189.35v-29.2l-17.582,23.626-12.836-9.552L312,133.35v-29.2l-17.582,23.626-12.836-9.552L312,77.35V49.71A17.73,17.73,0,0,0,294.29,32h-1.22a17.743,17.743,0,0,0-17.355,14.228l-51.87,259.341A8,8,0,0,1,216,312H154.264a63.845,63.845,0,0,1,21.726,47.618c0,.018,0,.035,0,.053,0,.11.008.219.008.329s-.009.245-.009.369v.044A63.848,63.848,0,0,1,154.264,408H169.15a72.16,72.16,0,0,1,45.6,16.28l27.966,22.877A145.289,145.289,0,0,0,480,334.72V216.15l-17.582,23.626-12.836-9.552L480,189.35v-29.2l-17.582,23.626-12.836-9.552L480,133.35v-29.2l-17.582,23.626-12.836-9.552L480,77.35V49.71A17.794,17.794,0,0,0,462.579,32ZM328,344h48v16H328Zm-88,48V376h48v16Zm80,40H272V416h48Zm40-32H312V384h48Zm56,32H368V416h48Zm32-48H400V368h48Z"/><path d="M96,360a8.009,8.009,0,0,0-8,8v8h16v-8A8.009,8.009,0,0,0,96,360Z"/></g></svg>
